<mxfile host="app.diagrams.net" modified="2023-03-25T07:48:28.764Z" agent="5.0 (Windows NT 10.0; Win64; x64) AppleWebKit/537.36 (KHTML, like Gecko) Chrome/111.0.0.0 Safari/537.36" etag="hClTU_jeU6ug_T--iy8j" version="20.8.16" type="github">
  <diagram name="Page-1" id="alUX3NXE5YTgOSeVpPDM">
    <mxGraphModel dx="860" dy="361" grid="0" gridSize="10" guides="1" tooltips="1" connect="1" arrows="1" fold="1" page="0" pageScale="1" pageWidth="827" pageHeight="1169" math="0" shadow="0">
      <root>
        <mxCell id="0" />
        <mxCell id="1" parent="0" />
      </root>
    </mxGraphModel>
  </diagram>
</mxfile>
